<svg width="94" height="94" viewBox="0 0 94 94" fill="none" xmlns="http://www.w3.org/2000/svg">
<g filter="url(#filter0_i_22_1568)">
<path d="M47 7.83331V23.5" stroke="#1C274C" stroke-width="5.875" stroke-linecap="round"/>
<path d="M47 7.83331V23.5" stroke="#8C9FB1" stroke-width="5.875" stroke-linecap="round"/>
</g>
<g filter="url(#filter1_i_22_1568)">
<path d="M33.2917 14.5148C20.6332 19.8631 11.75 32.3942 11.75 47C11.75 66.4681 27.532 82.25 47 82.25C66.468 82.25 82.25 66.4681 82.25 47C82.25 32.3942 73.3668 19.8631 60.7083 14.5148" stroke="#1C274C" stroke-width="5.875" stroke-linecap="round"/>
<path d="M33.2917 14.5148C20.6332 19.8631 11.75 32.3942 11.75 47C11.75 66.4681 27.532 82.25 47 82.25C66.468 82.25 82.25 66.4681 82.25 47C82.25 32.3942 73.3668 19.8631 60.7083 14.5148" stroke="#8C9FB1" stroke-width="5.875" stroke-linecap="round"/>
</g>
<defs>
<filter id="filter0_i_22_1568" x="44.0625" y="4.89581" width="5.875" height="23.1299" filterUnits="userSpaceOnUse" color-interpolation-filters="sRGB">
<feFlood flood-opacity="0" result="BackgroundImageFix"/>
<feBlend mode="normal" in="SourceGraphic" in2="BackgroundImageFix" result="shape"/>
<feColorMatrix in="SourceAlpha" type="matrix" values="0 0 0 0 0 0 0 0 0 0 0 0 0 0 0 0 0 0 127 0" result="hardAlpha"/>
<feOffset dy="1.58824"/>
<feGaussianBlur stdDeviation="1.58824"/>
<feComposite in2="hardAlpha" operator="arithmetic" k2="-1" k3="1"/>
<feColorMatrix type="matrix" values="0 0 0 0 0.351493 0 0 0 0 0.39658 0 0 0 0 0.441667 0 0 0 1 0"/>
<feBlend mode="normal" in2="shape" result="effect1_innerShadow_22_1568"/>
</filter>
<filter id="filter1_i_22_1568" x="8.8125" y="11.5766" width="76.375" height="75.1991" filterUnits="userSpaceOnUse" color-interpolation-filters="sRGB">
<feFlood flood-opacity="0" result="BackgroundImageFix"/>
<feBlend mode="normal" in="SourceGraphic" in2="BackgroundImageFix" result="shape"/>
<feColorMatrix in="SourceAlpha" type="matrix" values="0 0 0 0 0 0 0 0 0 0 0 0 0 0 0 0 0 0 127 0" result="hardAlpha"/>
<feOffset dy="1.58824"/>
<feGaussianBlur stdDeviation="1.58824"/>
<feComposite in2="hardAlpha" operator="arithmetic" k2="-1" k3="1"/>
<feColorMatrix type="matrix" values="0 0 0 0 0.351493 0 0 0 0 0.39658 0 0 0 0 0.441667 0 0 0 1 0"/>
<feBlend mode="normal" in2="shape" result="effect1_innerShadow_22_1568"/>
</filter>
</defs>
</svg>
